<svg width="216" height="34" fill="none" xmlns="http://www.w3.org/2000/svg"><path d="M13.2 33.45c-2.64 0-4.95-.435-6.93-1.305-1.98-.9-3.51-2.265-4.59-4.095C.6 26.19.06 23.835.06 20.985V2.625c0-.33.105-.6.315-.81.21-.21.48-.315.81-.315H6.09c.33 0 .6.105.81.315.21.21.315.48.315.81V20.94c0 2.22.525 3.87 1.575 4.95 1.05 1.08 2.52 1.62 4.41 1.62 1.86 0 3.315-.54 4.365-1.62 1.05-1.08 1.575-2.73 1.575-4.95V2.625c0-.33.105-.6.315-.81.24-.21.51-.315.81-.315h4.95c.3 0 .555.105.765.315.21.21.315.48.315.81v18.36c0 2.85-.54 5.205-1.62 7.065-1.08 1.83-2.595 3.195-4.545 4.095-1.95.87-4.26 1.305-6.93 1.305ZM32.359 33c-.3 0-.555-.105-.765-.315-.21-.21-.315-.48-.315-.81v-21.15c0-.33.105-.6.315-.81.21-.21.465-.315.765-.315h4.41c.33 0 .6.105.81.315.21.21.315.48.315.81v1.755c.78-.96 1.785-1.755 3.015-2.385 1.23-.63 2.73-.945 4.5-.945s3.315.405 4.635 1.215c1.35.78 2.4 1.935 3.15 3.465.78 1.5 1.17 3.33 1.17 5.49v12.555c0 .33-.12.6-.36.81-.21.21-.465.315-.765.315h-4.77c-.33 0-.6-.105-.81-.315-.21-.21-.315-.48-.315-.81V19.59c0-1.59-.39-2.82-1.17-3.69-.75-.9-1.86-1.35-3.33-1.35-1.41 0-2.535.45-3.375 1.35-.84.87-1.26 2.1-1.26 3.69v12.285c0 .33-.105.6-.315.81-.21.21-.465.315-.765.315h-4.77Zm27.621 0c-.33 0-.6-.105-.81-.315-.21-.21-.315-.48-.315-.81v-29.7c0-.33.105-.6.315-.81.21-.21.48-.315.81-.315h4.5c.3 0 .555.105.765.315.21.21.315.48.315.81v29.7c0 .33-.105.6-.315.81-.21.21-.465.315-.765.315h-4.5Zm21.078.45c-2.49 0-4.575-.405-6.255-1.215-1.68-.84-2.97-2.025-3.87-3.555-.87-1.53-1.35-3.315-1.44-5.355-.03-.6-.045-1.275-.045-2.025 0-.78.015-1.455.045-2.025.09-2.07.6-3.855 1.53-5.355.93-1.53 2.235-2.7 3.915-3.51 1.68-.84 3.72-1.26 6.12-1.26 2.37 0 4.395.42 6.075 1.26 1.68.81 2.985 1.98 3.915 3.51.93 1.5 1.44 3.285 1.53 5.355.06.57.09 1.245.09 2.025 0 .75-.03 1.425-.09 2.025-.09 2.04-.585 3.825-1.485 5.355-.87 1.53-2.145 2.715-3.825 3.555-1.68.81-3.75 1.215-6.21 1.215Zm0-4.95c1.47 0 2.58-.45 3.33-1.35.75-.93 1.155-2.28 1.215-4.05.03-.45.045-1.05.045-1.8s-.015-1.35-.045-1.8c-.06-1.74-.465-3.075-1.215-4.005-.75-.93-1.86-1.395-3.33-1.395s-2.595.465-3.375 1.395c-.75.93-1.155 2.265-1.215 4.005-.03.45-.045 1.05-.045 1.8s.015 1.35.045 1.8c.06 1.77.465 3.12 1.215 4.05.78.9 1.905 1.35 3.375 1.35Zm25.811 4.95c-2.19 0-4.125-.405-5.805-1.215-1.65-.81-2.955-1.98-3.915-3.51-.96-1.56-1.485-3.42-1.575-5.58-.03-.48-.045-1.08-.045-1.8 0-.75.015-1.365.045-1.845.09-2.19.6-4.05 1.53-5.58.96-1.56 2.28-2.745 3.96-3.555 1.68-.81 3.615-1.215 5.805-1.215 2.01 0 3.72.285 5.13.855 1.41.54 2.565 1.23 3.465 2.07.9.84 1.56 1.725 1.98 2.655.45.9.69 1.695.72 2.385.03.3-.075.57-.315.81-.21.21-.465.315-.765.315h-4.815c-.3 0-.54-.075-.72-.225-.15-.18-.3-.42-.45-.72-.42-1.05-.96-1.8-1.62-2.25-.66-.45-1.485-.675-2.475-.675-1.35 0-2.415.435-3.195 1.305-.78.87-1.2 2.22-1.26 4.05-.03 1.17-.03 2.235 0 3.195.09 1.86.51 3.21 1.26 4.05.78.84 1.845 1.26 3.195 1.26 1.05 0 1.89-.225 2.52-.675.63-.45 1.155-1.2 1.575-2.25.12-.3.27-.525.45-.675.18-.18.42-.27.72-.27h4.815c.3 0 .555.12.765.36.24.21.345.465.315.765-.03.51-.18 1.11-.45 1.8-.24.69-.645 1.395-1.215 2.115-.54.72-1.245 1.395-2.115 2.025-.87.6-1.935 1.095-3.195 1.485-1.23.36-2.67.54-4.32.54Zm15.934-.45c-.33 0-.6-.105-.81-.315-.21-.21-.315-.48-.315-.81v-29.7c0-.33.105-.6.315-.81.21-.21.48-.315.81-.315h4.41c.3 0 .555.105.765.315.21.21.315.48.315.81v15.21l6.93-7.02c.24-.21.45-.39.63-.54.21-.15.525-.225.945-.225h5.085a.9.9 0 0 1 .72.315c.18.18.27.405.27.675 0 .12-.03.255-.09.405a.731.731 0 0 1-.315.36l-8.685 8.73 9.81 11.205c.27.24.405.48.405.72 0 .27-.105.51-.315.72a.916.916 0 0 1-.675.27h-5.22c-.45 0-.78-.075-.99-.225-.18-.15-.39-.33-.63-.54l-7.875-8.82v8.46c0 .33-.105.6-.315.81-.21.21-.465.315-.765.315h-4.41Zm24.632 0c-.33 0-.6-.105-.81-.315-.21-.21-.315-.48-.315-.81v-29.7c0-.33.105-.6.315-.81.21-.21.48-.315.81-.315h4.5c.3 0 .555.105.765.315.21.21.315.48.315.81v29.7c0 .33-.105.6-.315.81-.21.21-.465.315-.765.315h-4.5Zm11.448 0c-.3 0-.555-.105-.765-.315-.21-.21-.315-.48-.315-.81v-21.15c0-.33.105-.6.315-.81.21-.21.465-.315.765-.315h4.5c.33 0 .6.105.81.315.21.21.315.48.315.81v21.15c0 .33-.105.6-.315.81-.21.21-.48.315-.81.315h-4.5Zm-.135-27c-.3 0-.555-.105-.765-.315-.21-.21-.315-.48-.315-.81v-3.6c0-.33.105-.6.315-.81a.98.98 0 0 1 .765-.36h4.725c.33 0 .6.12.81.36.24.21.36.48.36.81v3.6c0 .33-.12.6-.36.81-.21.21-.48.315-.81.315h-4.725Zm18.783 27c-.45 0-.795-.105-1.035-.315-.21-.24-.39-.51-.54-.81l-8.46-20.88a.893.893 0 0 1-.09-.405c0-.27.09-.495.27-.675.21-.21.45-.315.72-.315h4.365c.39 0 .675.105.855.315.21.21.345.405.405.585l5.535 14.85 5.535-14.85c.09-.18.225-.375.405-.585.21-.21.495-.315.855-.315h4.365c.27 0 .495.105.675.315.21.18.315.405.315.675 0 .15-.015.285-.045.405l-8.505 20.88c-.12.3-.3.57-.54.81-.24.21-.585.315-1.035.315h-4.05Zm26.661.45c-3.45 0-6.195-.96-8.235-2.88-2.01-1.92-3.075-4.71-3.195-8.37v-1.935c.12-2.31.645-4.29 1.575-5.94.93-1.68 2.235-2.955 3.915-3.825 1.68-.9 3.645-1.35 5.895-1.35 2.52 0 4.62.525 6.3 1.575a9.497 9.497 0 0 1 3.825 4.23c.87 1.77 1.305 3.81 1.305 6.12v1.035c0 .3-.12.555-.36.765-.21.21-.465.315-.765.315h-14.715v.36c.03.96.21 1.845.54 2.655.36.78.855 1.41 1.485 1.89.66.48 1.44.72 2.34.72.75 0 1.365-.105 1.845-.315.48-.21.87-.465 1.17-.765.33-.3.57-.555.72-.765.27-.3.48-.48.63-.54.18-.09.45-.135.81-.135h4.68c.3 0 .54.09.72.27.21.15.3.375.27.675-.03.48-.285 1.08-.765 1.8-.45.69-1.125 1.38-2.025 2.07-.9.66-2.025 1.215-3.375 1.665-1.32.45-2.85.675-4.59.675Zm-4.455-14.355h8.82v-.09c0-1.08-.18-2.01-.54-2.79-.33-.81-.825-1.44-1.485-1.89-.66-.45-1.455-.675-2.385-.675-.93 0-1.725.225-2.385.675-.66.45-1.17 1.08-1.53 1.89-.33.78-.495 1.71-.495 2.79v.09Z" fill="#fff"/></svg>