<svg width="24" height="16" fill="none" xmlns="http://www.w3.org/2000/svg"><path d="M5.75 4.075h12.5v7.5H5.75v-7.5Zm15-3.75c1.367 0 2.5 1.133 2.5 2.5V5.95c-1.055 0-1.875.86-1.875 1.875A1.85 1.85 0 0 0 23.25 9.7v3.125c0 1.406-1.133 2.5-2.5 2.5H3.25a2.468 2.468 0 0 1-2.5-2.5V9.7c1.016 0 1.875-.82 1.875-1.875 0-1.015-.86-1.875-1.875-1.875V2.825c0-1.367 1.094-2.5 2.5-2.5h17.5ZM4.5 11.575c0 .703.547 1.25 1.25 1.25h12.5c.664 0 1.25-.547 1.25-1.25v-7.5c0-.664-.586-1.25-1.25-1.25H5.75c-.703 0-1.25.586-1.25 1.25v7.5Z" fill="#E2C55D"/></svg>