<svg width="16" height="18" fill="none" xmlns="http://www.w3.org/2000/svg"><path d="M15.814 10.616c-.348-.541-.696-1.064-1.044-1.605-.077-.116-.077-.194 0-.31.348-.522.677-1.044 1.025-1.567.406-.619.193-1.218-.503-1.47-.58-.212-1.16-.444-1.74-.657-.117-.039-.175-.116-.175-.252a58.98 58.98 0 0 0-.097-1.895c-.038-.677-.56-1.064-1.218-.89a51.86 51.86 0 0 0-1.838.503c-.135.039-.212 0-.31-.097-.386-.503-.792-.986-1.179-1.47-.426-.541-1.083-.541-1.528 0-.387.484-.793.967-1.16 1.45-.097.136-.194.156-.349.117-.6-.174-1.199-.329-1.625-.445-.831-.193-1.334.135-1.373.832a61.613 61.613 0 0 0-.097 1.934c0 .135-.058.193-.174.251l-1.798.697c-.62.251-.813.85-.445 1.412.348.541.696 1.064 1.044 1.605.078.116.078.194 0 .33a47.739 47.739 0 0 0-1.064 1.643c-.329.522-.116 1.141.465 1.373.6.233 1.218.465 1.818.697.135.039.174.116.174.251.02.62.097 1.219.097 1.838s.541 1.18 1.295.948c.6-.194 1.2-.33 1.8-.503.115-.039.193-.02.27.096.406.503.793.987 1.2 1.49.444.541 1.082.541 1.508 0 .406-.503.793-.987 1.2-1.49.077-.096.135-.135.27-.096.619.174 1.238.329 1.857.503.638.174 1.18-.213 1.2-.87.038-.64.076-1.277.096-1.935 0-.155.077-.213.193-.252.58-.212 1.18-.444 1.76-.677.62-.309.813-.928.445-1.489Zm-4.623-3.172-3.868 3.868a.682.682 0 0 1-.367.194c-.04 0-.097.02-.136.02a.737.737 0 0 1-.503-.214L4.731 9.726a.7.7 0 0 1 0-.986.7.7 0 0 1 .987 0L6.8 9.823l3.365-3.366a.7.7 0 0 1 .987 0c.31.271.31.716.038.987Z" fill="#E2C55D"/></svg>