<svg width="35" height="36" fill="none" xmlns="http://www.w3.org/2000/svg"><path d="M17.5 35.044c-4.675 0-9.07-1.822-12.375-5.132A17.419 17.419 0 0 1 0 17.522c0-4.68 1.82-9.08 5.125-12.39A17.374 17.374 0 0 1 17.5 0c4.674 0 9.07 1.823 12.375 5.132A17.419 17.419 0 0 1 35 17.522c0 4.68-1.82 9.08-5.125 12.39A17.374 17.374 0 0 1 17.5 35.045Zm0-33.949c-9.046 0-16.405 7.37-16.405 16.427 0 9.058 7.36 16.427 16.405 16.427 9.046 0 16.405-7.369 16.405-16.427S26.545 1.095 17.5 1.095Z" fill="#E2C55D"/><path d="M17.5 32.273a14.626 14.626 0 0 1-10.418-4.32 14.664 14.664 0 0 1-4.314-10.43c0-3.94 1.532-7.645 4.314-10.431A14.626 14.626 0 0 1 17.5 2.772c3.935 0 7.635 1.534 10.418 4.32a14.664 14.664 0 0 1 4.314 10.43c0 3.94-1.532 7.644-4.314 10.43A14.626 14.626 0 0 1 17.5 32.273Zm0-28.407c-7.52 0-13.637 6.126-13.637 13.656S9.98 31.178 17.5 31.178c7.52 0 13.637-6.126 13.637-13.656S25.019 3.867 17.5 3.867Z" fill="#E2C55D"/><path d="M27.49 28.153a.547.547 0 0 1-.48-.286l-7.57-13.894a.548.548 0 1 1 .962-.523l7.568 13.893a.548.548 0 0 1-.48.81Z" fill="#E2C55D"/><path d="M14.44 31.942a.548.548 0 0 1-.48-.81l7.557-13.872a.548.548 0 0 1 .961.524l-7.556 13.872a.548.548 0 0 1-.482.286Z" fill="#E2C55D"/><path d="M19.922 21.88H3.832a.548.548 0 1 1 0-1.095h16.09a.548.548 0 0 1 0 1.096Z" fill="#E2C55D"/><path d="M15.079 21.88a.548.548 0 0 1-.482-.285L7.03 7.7a.548.548 0 0 1 .962-.524L15.56 21.07a.548.548 0 0 1-.48.81Z" fill="#E2C55D"/><path d="M13.002 18.07a.547.547 0 0 1-.48-.81l7.556-13.872a.548.548 0 0 1 .962.524l-7.557 13.872a.548.548 0 0 1-.481.286Z" fill="#E2C55D"/><path d="M31.168 14.26h-16.09a.548.548 0 0 1 0-1.096h16.09a.548.548 0 1 1 0 1.095Z" fill="#E2C55D"/></svg>