<svg width="35" height="38" fill="none" xmlns="http://www.w3.org/2000/svg"><path d="M11.765 31.453H1.83A1.831 1.831 0 0 1 0 29.624V7.388A1.83 1.83 0 0 1 1.829 5.56h9.936c1.008 0 1.829.821 1.829 1.83v22.236a1.83 1.83 0 0 1-1.829 1.828ZM1.83 6.766a.624.624 0 0 0-.623.622v22.237c0 .343.28.623.623.623h9.936c.343 0 .623-.28.623-.623V7.388a.624.624 0 0 0-.623-.622H1.83Z" fill="#E2C55D"/><path d="M10.452 6.766a.603.603 0 0 1-.603-.604V3.851a.064.064 0 0 0-.062-.062h-5.98a.064.064 0 0 0-.061.062v2.31a.603.603 0 0 1-1.207 0v-2.31c0-.7.57-1.268 1.269-1.268h5.98c.699 0 1.267.569 1.267 1.268v2.31c0 .334-.27.605-.603.605Z" fill="#E2C55D"/><path d="M5.55 3.789a.604.604 0 0 1-.583-.445L4.495 1.6A1.24 1.24 0 0 1 4.71.498 1.242 1.242 0 0 1 5.72 0h2.156c.404 0 .762.177 1.008.498.245.321.322.713.216 1.102l-.472 1.744a.603.603 0 0 1-1.164-.316l.473-1.743c.007-.025.005-.034-.011-.055-.017-.02-.024-.024-.05-.024H5.72c-.027 0-.034.003-.05.024-.016.022-.017.029-.01.055l.472 1.743a.603.603 0 0 1-.582.76ZM9.787 34.43h-5.98c-.7 0-1.268-.57-1.268-1.268V30.85a.603.603 0 0 1 1.207 0v2.31c0 .034.029.063.062.063h5.98a.064.064 0 0 0 .061-.062V30.85a.603.603 0 0 1 1.206 0v2.31a1.27 1.27 0 0 1-1.268 1.269Z" fill="#E2C55D"/><path d="M7.875 37.013H5.72c-.405 0-.762-.177-1.008-.498a1.24 1.24 0 0 1-.216-1.103l.472-1.743a.603.603 0 0 1 1.164.316l-.473 1.743c-.007.026-.005.033.01.054.017.021.023.025.05.025h2.156c.026 0 .034-.005.05-.025.015-.02.017-.029.01-.054l-.473-1.743a.603.603 0 0 1 1.164-.316l.473 1.743c.106.39.029.782-.217 1.103a1.237 1.237 0 0 1-1.006.498Zm9.241-8.785c-1.257 0-2.668-.21-4.314-.753a.603.603 0 1 1 .378-1.146c4.132 1.363 6.566.452 9.143-.512 2.957-1.107 6.01-2.248 11.47.143V11.517c-5.322-2.478-8.105-1.438-11.047-.337-2.659.995-5.409 2.024-9.944.529a.603.603 0 1 1 .378-1.146c4.132 1.362 6.566.451 9.143-.513 3.11-1.164 6.326-2.367 12.336.543.208.1.34.312.34.542v15.767a.604.604 0 0 1-.866.543c-5.545-2.684-8.383-1.622-11.388-.498-1.693.634-3.424 1.281-5.63 1.281Z" fill="#E2C55D"/><path d="M17.116 15.947c-1.257 0-2.668-.211-4.314-.754a.603.603 0 1 1 .378-1.145c4.132 1.362 6.566.451 9.143-.513 3.11-1.164 6.326-2.367 12.336.543a.603.603 0 1 1-.525 1.086c-5.545-2.684-8.383-1.623-11.388-.499-1.694.634-3.425 1.282-5.63 1.282Zm0 8.796c-1.257 0-2.668-.21-4.314-.753a.603.603 0 1 1 .378-1.145c4.132 1.362 6.566.451 9.143-.513 3.11-1.164 6.326-2.367 12.336.543a.603.603 0 1 1-.525 1.085c-5.545-2.684-8.383-1.622-11.388-.498-1.694.634-3.425 1.281-5.63 1.281Z" fill="#E2C55D"/><path d="M30.74 26.135a.603.603 0 0 1-.603-.603v-3.486a.603.603 0 0 1 1.206 0v3.486c0 .333-.27.603-.603.603Zm0-12.283a.603.603 0 0 1-.603-.603V9.764a.603.603 0 0 1 1.206 0v3.485c0 .333-.27.603-.603.603ZM27.217 25.78a.603.603 0 0 1-.603-.602V21.69a.603.603 0 0 1 1.206 0v3.486c0 .334-.27.604-.603.604Zm0-12.282a.603.603 0 0 1-.603-.603V9.41a.603.603 0 0 1 1.206 0v3.485c0 .333-.27.603-.603.603Zm-3.523 13.077a.603.603 0 0 1-.604-.603v-3.485a.603.603 0 0 1 1.207 0v3.485c0 .333-.27.603-.604.603Zm0-12.282a.603.603 0 0 1-.604-.603v-3.485a.603.603 0 0 1 1.207 0v3.485c0 .333-.27.603-.604.603Zm-3.524 13.48a.603.603 0 0 1-.603-.603v-3.486a.603.603 0 0 1 1.206 0v3.486c0 .333-.27.603-.603.603Zm0-12.283a.603.603 0 0 1-.603-.603v-3.485a.603.603 0 0 1 1.206 0v3.485c0 .333-.27.603-.603.603Zm-3.567 12.484A.603.603 0 0 1 16 27.37v-3.485a.603.603 0 0 1 1.206 0v3.485c0 .333-.27.604-.603.604Zm0-12.283a.603.603 0 0 1-.603-.603v-3.485a.603.603 0 0 1 1.206 0v3.485c0 .333-.27.603-.603.603Z" fill="#E2C55D"/></svg>