<svg width="35" height="30" fill="none" xmlns="http://www.w3.org/2000/svg"><path d="M17.5 22.872a5.637 5.637 0 0 1-5.631-5.631A5.638 5.638 0 0 1 17.5 11.61a5.638 5.638 0 0 1 5.631 5.63 5.638 5.638 0 0 1-5.631 5.632Zm0-10.122a4.496 4.496 0 0 0-4.49 4.49 4.496 4.496 0 0 0 4.49 4.492 4.496 4.496 0 0 0 4.49-4.491 4.496 4.496 0 0 0-4.49-4.491Z" fill="#E2C55D"/><path d="M32.986 29.449H2.014A2.016 2.016 0 0 1 0 27.435V7.936c0-1.6 1.265-2.903 2.82-2.903h3.891a3.812 3.812 0 0 0 3.475-2.151l.025-.05.135-.273C10.934 1.359 11.6 0 13.237 0h8.526c1.636 0 2.303 1.359 2.891 2.558l.135.275.025.049a3.812 3.812 0 0 0 3.475 2.15h3.89C33.735 5.033 35 6.336 35 7.937v19.5c0 1.11-.904 2.013-2.014 2.013ZM2.821 6.173c-.927 0-1.68.791-1.68 1.763v19.5c0 .481.392.872.873.872h30.971a.874.874 0 0 0 .874-.873V7.936c0-.972-.754-1.763-1.68-1.763h-3.89c-1.948 0-3.629-1.04-4.497-2.783l-.024-.05a32.048 32.048 0 0 1-.138-.28c-.585-1.19-.987-1.92-1.868-1.92h-8.525c-.88 0-1.284.73-1.867 1.92l-.138.28-.025.05c-.868 1.742-2.548 2.783-4.495 2.783H2.82Z" fill="#E2C55D"/><path d="M34.43 8.785h-7.98c-1.947 0-3.628-1.04-4.496-2.784l-.843-1.694c-.035-.07-.077-.16-.125-.26a28.566 28.566 0 0 0-.141-.295h-6.693c-.05.102-.098.205-.141.296l-.124.26-.844 1.694c-.868 1.743-2.548 2.783-4.495 2.783H.57a.57.57 0 0 1 0-1.14h7.98a3.812 3.812 0 0 0 3.475-2.152l.843-1.694c.032-.064.07-.146.114-.238.093-.197.209-.442.324-.653a.57.57 0 0 1 .5-.297h7.39a.57.57 0 0 1 .501.297c.115.21.23.456.323.652.043.092.082.174.114.238l.843 1.694a3.812 3.812 0 0 0 3.475 2.15h7.979a.57.57 0 0 1 0 1.143ZM17.5 25.511c-4.56 0-8.27-3.71-8.27-8.27s3.71-8.27 8.27-8.27 8.27 3.71 8.27 8.27-3.71 8.27-8.27 8.27Zm0-15.4c-3.931 0-7.13 3.198-7.13 7.13 0 3.93 3.198 7.13 7.13 7.13a7.137 7.137 0 0 0 7.13-7.13c0-3.931-3.199-7.13-7.13-7.13Z" fill="#E2C55D"/><path d="M34.43 19.623h-9.445a.57.57 0 0 1 0-1.14h8.874v-2.484h-8.874a.57.57 0 0 1 0-1.141h9.445a.57.57 0 0 1 .57.57v3.624a.57.57 0 0 1-.57.57Zm-24.415 0H.57a.57.57 0 0 1-.57-.57v-3.624a.57.57 0 0 1 .57-.57h9.445a.57.57 0 0 1 0 1.14H1.141v2.484h8.874a.57.57 0 0 1 0 1.14Zm9.297 9.826a.57.57 0 0 1-.57-.57v-4.154a.57.57 0 0 1 1.14 0v4.153a.57.57 0 0 1-.57.57Zm-3.624 0a.57.57 0 0 1-.57-.57v-4.154a.57.57 0 0 1 1.14 0v4.153a.57.57 0 0 1-.57.57ZM31.262 6.174a.57.57 0 0 1-.57-.57v-1.45a.75.75 0 0 0-.749-.748h-.1a.75.75 0 0 0-.748.748v1.448a.57.57 0 0 1-1.14 0V4.155a1.89 1.89 0 0 1 1.889-1.889h.1c1.041 0 1.888.848 1.888 1.89v1.447a.57.57 0 0 1-.57.57ZM6.476 6.173a.57.57 0 0 1-.57-.57V4.155a.75.75 0 0 0-.75-.748h-.099a.75.75 0 0 0-.748.748v1.448a.57.57 0 0 1-1.14 0V4.155a1.89 1.89 0 0 1 1.888-1.889h.1a1.89 1.89 0 0 1 1.889 1.89v1.447a.57.57 0 0 1-.57.57Z" fill="#E2C55D"/></svg>