<svg width="14" height="12" fill="none" xmlns="http://www.w3.org/2000/svg"><path d="m1.422.89 5.25 4.376c.191.164.328.41.328.656 0 .273-.137.52-.328.683l-5.25 4.375c-.274.22-.629.274-.93.11A.852.852 0 0 1 0 10.297v-8.75C0 1.219.191.918.492.754a.886.886 0 0 1 .93.137Zm9.078.657v8.75c0 .492-.41.875-.875.875a.864.864 0 0 1-.875-.875v-8.75c0-.465.383-.875.875-.875a.9.9 0 0 1 .875.875Zm3.5 0v8.75c0 .492-.41.875-.875.875a.864.864 0 0 1-.875-.875v-8.75c0-.465.383-.875.875-.875a.9.9 0 0 1 .875.875Z" fill="#0E0E0E"/></svg>